<?xml version="1.0" standalone="no"?>
<!DOCTYPE svg PUBLIC "-//W3C//DTD SVG 20010904//EN"
 "http://www.w3.org/TR/2001/REC-SVG-20010904/DTD/svg10.dtd">
<svg version="1.0" xmlns="http://www.w3.org/2000/svg"
 width="120.000000pt" height="90.000000pt" viewBox="0 0 120.000000 90.000000"
 preserveAspectRatio="xMidYMid meet">

<g transform="translate(0.000000,90.000000) scale(0.100000,-0.100000)"
fill="#000000" stroke="none">
<path d="M71 864 c-25 -11 -32 -20 -28 -34 3 -11 2 -18 -3 -15 -15 9 -20 -28
-20 -161 0 -83 -4 -134 -10 -134 -6 0 -10 -76 -10 -209 0 -240 7 -272 65 -297
51 -21 1019 -21 1070 0 58 25 65 57 65 297 0 133 -4 209 -10 209 -6 0 -10 51
-10 134 0 133 -5 170 -20 161 -5 -3 -6 4 -3 14 4 16 -3 23 -32 35 -54 23
-1002 22 -1054 0z m1051 -42 c19 -19 19 -725 0 -744 -19 -19 -1025 -19 -1044
0 -10 10 -14 87 -16 335 -4 364 -1 404 31 417 12 5 245 8 519 7 392 -2 500 -5
510 -15z"/>
<path d="M108 813 c-10 -2 -20 -18 -23 -36 -9 -48 -1 -674 8 -684 11 -11 1003
-11 1014 0 11 11 11 703 0 714 -9 8 -968 15 -999 6z m976 -29 c14 -13 16 -58
16 -334 0 -276 -2 -321 -16 -334 -14 -14 -71 -16 -484 -16 -413 0 -470 2 -484
16 -14 13 -16 58 -16 334 0 276 2 321 16 334 14 14 71 16 484 16 413 0 470 -2
484 -16z"/>
<path d="M560 611 l0 -81 30 0 30 0 0 81 c0 51 -4 78 -10 74 -5 -3 -10 -35
-10 -71 0 -36 -4 -64 -10 -64 -6 0 -10 28 -10 64 0 36 -4 68 -10 71 -6 4 -10
-23 -10 -74z"/>
<path d="M360 480 l0 -30 90 0 90 0 0 30 c0 17 -4 30 -10 30 -5 0 -10 -9 -10
-20 0 -18 -7 -20 -70 -20 -40 0 -70 4 -70 10 0 6 10 10 23 11 21 0 21 1 2 9
-36 15 -45 11 -45 -20z"/>
<path d="M640 480 l0 -30 90 0 90 0 0 30 c0 17 -4 30 -10 30 -5 0 -10 -9 -10
-20 0 -18 -7 -20 -70 -20 -40 0 -70 4 -70 10 0 6 10 10 23 11 21 0 21 1 2 9
-36 15 -45 11 -45 -20z"/>
<path d="M560 331 l0 -81 30 0 30 0 0 81 c0 51 -4 78 -10 74 -5 -3 -10 -35
-10 -71 0 -36 -4 -64 -10 -64 -6 0 -10 28 -10 64 0 36 -4 68 -10 71 -6 4 -10
-23 -10 -74z"/>
</g>
</svg>
